<svg width="24" height="24" viewBox="0 0 24 24" fill="none" xmlns="http://www.w3.org/2000/svg">
    <path fill-rule="evenodd" clip-rule="evenodd" d="M11.1761 11.53C11.7226 10.763 11.6616 9.9553 11.2827 8.50235C10.5333 5.62882 10.8317 4.05383 13.4151 2.18916L14.6759 1.27905L14.9809 2.80389C15.305 4.42441 15.8373 5.42671 17.2039 7.35464C17.2582 7.43122 17.2582 7.43122 17.3127 7.50815C19.2813 10.2854 20.0003 11.9596 20.0003 15C20.0003 18.6884 16.2717 22 12.0003 22C7.72873 22 4.00033 18.6888 4.00033 15C4.00033 14.9311 4.0004 14.9331 3.98871 14.6285C3.89836 12.2718 4.33413 10.4274 6.09739 8.43586C6.46994 8.01509 6.89341 7.61068 7.36995 7.22371L8.42194 6.36946L8.92799 7.62658C9.3019 8.55547 9.74002 9.28567 10.2349 9.82151C10.6541 10.2754 10.9651 10.8461 11.1761 11.53ZM7.59481 9.76166C6.23744 11.2947 5.91473 12.6606 5.98725 14.5518C6.00074 14.9039 6.00033 14.8915 6.00033 15C6.00033 17.5279 8.78393 20 12.0003 20C15.2165 20 18.0003 17.5275 18.0003 15C18.0003 12.4582 17.4321 11.135 15.6811 8.6647C15.6268 8.58818 15.6268 8.58818 15.5723 8.51125C14.5089 7.01111 13.875 5.96759 13.4557 4.80052C12.7708 5.62118 12.8111 6.43739 13.218 7.99766C13.9673 10.8712 13.6689 12.4462 11.0856 14.3108L9.6126 15.3741L9.50217 13.5608C9.43162 12.4023 9.16939 11.6156 8.76572 11.1785C8.36689 10.7467 8.00679 10.2411 7.68388 9.66279C7.65376 9.69566 7.62407 9.72862 7.59481 9.76166Z" fill="black"/>
    <path fill-rule="evenodd" clip-rule="evenodd" d="M7.59464 9.76167C6.23727 11.2947 5.91456 12.6606 5.98707 14.5518C6.00057 14.9039 6.00015 14.8915 6.00015 15C6.00015 17.5279 8.78375 20 12.0002 20C15.2163 20 18.0002 17.5275 18.0002 15C18.0002 12.4582 17.4319 11.135 15.6809 8.66471C15.6266 8.5882 15.6266 8.5882 15.5721 8.51126C14.5087 7.01113 13.8748 5.9676 13.4555 4.80054C12.7706 5.62119 12.8109 6.43741 13.2178 7.99767C13.9672 10.8712 13.6688 12.4462 11.0854 14.3109L9.61242 15.3741L9.502 13.5608C9.43145 12.4023 9.16922 11.6156 8.76554 11.1785C8.36672 10.7467 8.00662 10.2412 7.6837 9.66281C7.65358 9.69567 7.62389 9.72863 7.59464 9.76167Z" fill="#A620C8"/>
</svg>
